<?xml version="1.0" encoding="utf-8"?>
<!-- Generator: Adobe Illustrator 19.0.0, SVG Export Plug-In . SVG Version: 6.00 Build 0)  -->
<svg version="1.1" id="Capa_1" xmlns="http://www.w3.org/2000/svg" xmlns:xlink="http://www.w3.org/1999/xlink" x="0px" y="0px"
	 viewBox="0 0 25 25" style="enable-background:new 0 0 25 25;" xml:space="preserve">
<style type="text/css">
	.st0{fill:#FFFFFF;}
</style>
<g id="XMLID_10361_">
	<path id="XMLID_10397_" class="st0" d="M11,18.5C11,18.5,11,18.6,11,18.5c-0.1,0.2-0.3,0.4-0.4,0.4c-0.2,0.1-0.3,0-0.3-0.2
		c0-0.1,0-0.1,0-0.2c0-1.2,0-3.7,0-3.7H9.3c0,0,0,3.5,0,4.1c0,0.2,0,0.4,0.1,0.5c0.1,0.2,0.2,0.3,0.4,0.3c0.1,0,0.3,0,0.4,0
		c0.3-0.1,0.5-0.3,0.7-0.5c0,0,0,0,0.1-0.1v0.5h0.9v-2.4c0-0.8,0-2.6,0-2.6l-0.9,0V18.5z"/>
	<path id="XMLID_10373_" class="st0" d="M15.2,15.2c-0.2-0.4-0.6-0.5-0.9-0.4c-0.2,0.1-0.4,0.2-0.5,0.3c0,0.1-0.1,0.2-0.1,0.2
		s0-1.5,0-2.2h-0.9v6.7h0.9v-0.4c0,0,0.1,0.1,0.1,0.1c0.2,0.2,0.5,0.3,0.8,0.3c0.4,0,0.6-0.2,0.8-0.5c0.1-0.2,0.1-0.3,0.1-0.5
		c0-0.9,0-1.9,0-2.8C15.4,15.7,15.3,15.5,15.2,15.2z M14.4,18.6c0,0,0,0.1,0,0.1c0,0.2-0.2,0.3-0.4,0.2c-0.1,0-0.2-0.1-0.3-0.2
		c0,0,0,0,0,0v0v-0.1l0-3l0,0v0c0,0,0-0.1,0.1-0.1c0.1-0.1,0.2-0.2,0.4-0.1c0.1,0,0.2,0.1,0.3,0.2c0,0.1,0.1,0.2,0.1,0.3
		C14.4,16.9,14.4,17.8,14.4,18.6L14.4,18.6L14.4,18.6z"/>
	<polygon id="XMLID_10372_" class="st0" points="9.3,13.1 6.2,13.1 6.2,14 7.3,14 7.3,19.7 8.3,19.7 8.3,14 9.3,14 	"/>
	<path id="XMLID_10371_" class="st0" d="M12,9.4c0.2,0,0.4-0.2,0.4-0.4V6.3C12.4,6.1,12.2,6,12,6s-0.4,0.2-0.4,0.4V9
		C11.6,9.2,11.8,9.4,12,9.4z"/>
	<path id="XMLID_10365_" class="st0" d="M0,0v25h25V0H0z M14.1,5.2H15V9c0,0.1,0,0.1,0,0.1c0,0.2,0.1,0.2,0.3,0.2
		c0.2-0.1,0.3-0.2,0.4-0.3c0,0,0-0.1,0-0.1V5.2h0.9l0,5h-0.9l0-0.5c-0.1,0.1-0.2,0.2-0.3,0.3c-0.2,0.1-0.4,0.3-0.6,0.3
		c-0.3,0.1-0.6,0-0.7-0.4c0-0.1-0.1-0.2-0.1-0.4V5.2z M12,5.1c0.7,0,1.3,0.6,1.3,1.3V9c0,0.7-0.6,1.3-1.3,1.3
		c-0.7,0-1.3-0.6-1.3-1.3V6.4C10.7,5.7,11.3,5.1,12,5.1z M8.5,3.5c0,0,0.4,1.8,0.6,2.6h0c0.2-0.8,0.6-2.6,0.6-2.6h1
		c0,0-0.8,2.7-1.2,3.8c0,0,0,0.1,0,0.1l0,2.7h-1l0-2.7c0,0,0-0.1,0-0.1C8.2,6.1,7.4,3.5,7.4,3.5H8.5z M19.9,19.2
		c0,1.2-1,2.2-2.2,2.2c-3.5,0.1-7,0.1-10.5,0c-1.2,0-2.2-1-2.2-2.2v-5.5c0-1.2,1-2.2,2.2-2.2c3.5-0.1,7-0.1,10.5,0
		c1.2,0,2.2,1,2.2,2.2V19.2z"/>
	<path id="XMLID_10362_" class="st0" d="M18.7,17.4c0,0,0-0.9,0-1.2c0-0.2,0-0.3,0-0.5c-0.1-0.4-0.3-0.7-0.7-0.9
		c-0.1,0-0.3-0.1-0.4-0.1c-0.4,0-0.8,0.1-1.1,0.4c-0.3,0.3-0.4,0.6-0.4,1c0,0.7,0,1.5,0,2.2c0,0.2,0,0.4,0.1,0.6
		c0.1,0.4,0.3,0.7,0.7,0.9c0.3,0.1,0.6,0.1,0.9,0.1c0.5-0.1,0.8-0.3,0.9-0.8c0.1-0.3,0.1-1.1,0.1-1.1h-0.9v0.6
		c0,0.2-0.2,0.4-0.4,0.4c-0.2,0-0.4-0.2-0.4-0.4v-1.2H18.7z M17,15.9c0-0.2,0.2-0.4,0.4-0.4c0.2,0,0.4,0.2,0.4,0.4v0.7H17V15.9z"/>
</g>
</svg>
